<svg id="SvgjsSvg1048" width="288" height="288" xmlns="http://www.w3.org/2000/svg" version="1.1" xmlns:xlink="http://www.w3.org/1999/xlink" xmlns:svgjs="http://svgjs.com/svgjs"><defs id="SvgjsDefs1049"></defs><g id="SvgjsG1050"><svg xmlns="http://www.w3.org/2000/svg" viewBox="0 0 32 32" width="288" height="288"><path d="M16,2A14,14,0,1,0,30,16,14,14,0,0,0,16,2ZM10,26.39a6,6,0,0,1,11.94,0,11.87,11.87,0,0,1-11.94,0Zm13.74-1.26a8,8,0,0,0-15.54,0,12,12,0,1,1,15.54,0ZM16,8a5,5,0,1,0,5,5A5,5,0,0,0,16,8Zm0,8a3,3,0,1,1,3-3A3,3,0,0,1,16,16Z" data-name="13  User, Account, Circle, Person" fill="#364a38" class="color000 svgShape"></path></svg></g></svg>