<svg id="SvgjsSvg1036" width="288" height="288" xmlns="http://www.w3.org/2000/svg" version="1.1" xmlns:xlink="http://www.w3.org/1999/xlink" xmlns:svgjs="http://svgjs.com/svgjs"><defs id="SvgjsDefs1037"></defs><g id="SvgjsG1038"><svg xmlns="http://www.w3.org/2000/svg" viewBox="0 0 24 24" width="288" height="288"><g data-name="Layer 2" fill="#000000" class="color000 svgShape"><g data-name="Layer 3" fill="#000000" class="color000 svgShape"><rect width="24" height="24" fill="none"></rect><path fill="#ffffff" d="M1,12C1,4,4,1,12,1S23,4,23,12,20,23,12,23,1,20,1,12" class="colorfff svgShape"></path><path fill="#3e5d3f" d="M12,14.52A2.54,2.54,0,0,0,14.57,12V6.12a2.58,2.58,0,0,0-5.15,0V12A2.55,2.55,0,0,0,12,14.52Z" class="color4285f4 svgShape"></path><path fill="#6aa076" d="M11.15,17.81h1.71V20.4H11.15Z" class="color34a853 svgShape"></path><path fill="#a6b799" d="M7.72,12H6a5.81,5.81,0,0,0,1.76,4.16L9,15A4.16,4.16,0,0,1,7.72,12Z" class="colorf4b400 svgShape"></path><path fill="#204624" d="M12,16.2A4.33,4.33,0,0,1,9,15L7.76,16.15A6,6,0,0,0,12,17.88,5.93,5.93,0,0,0,18,12H16.28A4.24,4.24,0,0,1,12,16.2Z" class="colorea4335 svgShape"></path></g></g></svg></g></svg>